<svg xmlns="http://www.w3.org/2000/svg" width="120" height="120" viewBox="0 0 120 120" fill="none">
  <g stroke="#C9A84C" stroke-width="0.45" opacity="0.14">
    <circle cx="60" cy="42" r="10" />
    <circle cx="60" cy="78" r="10" />
    <circle cx="42" cy="60" r="10" />
    <circle cx="78" cy="60" r="10" />
    <circle cx="60" cy="60" r="4" />
    <path d="M60 32 C72 32 78 42 78 54" />
    <path d="M60 88 C72 88 78 78 78 66" />
    <path d="M32 60 C32 72 42 78 54 78" />
    <path d="M88 60 C88 72 78 78 66 78" />
  </g>
  <g stroke="#E8D5A3" stroke-width="0.35" opacity="0.08">
    <path d="M0 60 C20 40 40 20 60 0" />
    <path d="M120 60 C100 80 80 100 60 120" />
    <path d="M60 0 C80 20 100 40 120 60" />
    <path d="M60 120 C40 100 20 80 0 60" />
    <circle cx="60" cy="60" r="22" />
  </g>
</svg>
